<svg xmlns="http://www.w3.org/2000/svg" viewBox="0 0 1296.69 973.39"><defs><style>.cls-1{opacity:0.6;}.cls-2{fill:none;stroke:#fff;stroke-miterlimit:10;stroke-width:22px;}</style></defs><title>Iso Blanco</title><g id="Capa_2" data-name="Capa 2"><g id="Text"><g class="cls-1"><path class="cls-2" d="M837.08,278.38A27.13,27.13,0,1,1,810,251.26,27.12,27.12,0,0,1,837.08,278.38Z"/><path class="cls-2" d="M1103.06,347.62a100.25,100.25,0,0,0-37.92-66.92L779.5,58.46l-17-13.19L745.6,32.09A100.84,100.84,0,0,0,604.47,49.71l-3.42,4.39-3.42,4.4L405.82,305,214,551.56A100.87,100.87,0,0,0,231.63,692.7L374.42,803.79l142.8,111.1,17,13.2,17,13.21A100.87,100.87,0,0,0,692.3,923.69l6.82-8.76,383.64-493.1A100.32,100.32,0,0,0,1103.06,347.62ZM958.55,216.22l-106,136.22a38.35,38.35,0,0,1-53.67,6.7l-66-51.32a38.36,38.36,0,0,1-6.7-53.67l106-136.23a12,12,0,0,1,16.84-2.1l107.4,83.56A12,12,0,0,1,958.55,216.22Z"/><path class="cls-2" d="M374.42,803.79l142.8,111.1-3.43,4.4-3.42,4.4A100.87,100.87,0,0,1,369.24,941.3L49.7,692.7A100.87,100.87,0,0,1,32.08,551.56L227.31,300.63,422.54,49.71A100.85,100.85,0,0,1,563.68,32.09l17,13.2,17,13.21L405.82,305,214,551.56A100.87,100.87,0,0,0,231.63,692.7Z"/><path class="cls-2" d="M1264.6,421.83,1069.37,672.76,874.14,923.69A100.87,100.87,0,0,1,733,941.3l-17-13.19-16.94-13.18,383.64-493.1a100.86,100.86,0,0,0-17.62-141.13L779.5,58.46l3.4-4.38,3.41-4.37A100.84,100.84,0,0,1,927.44,32.09l159.77,124.3L1247,280.7a100.86,100.86,0,0,1,17.62,141.13Z"/></g></g></g></svg>