<svg xmlns="http://www.w3.org/2000/svg" viewBox="0 0 1567.37 973.39"><defs><style>.cls-1,.cls-3{fill:none;}.cls-1{stroke:#61ff49;stroke-width:18px;}.cls-1,.cls-3,.cls-4{stroke-miterlimit:10;}.cls-2{opacity:0.6;}.cls-3{stroke:#000;stroke-width:22px;}.cls-4{font-size:262.67px;stroke:#fff;font-family:Audiowide-Regular, Audiowide;}.cls-5{letter-spacing:-0.01em;}.cls-6{letter-spacing:0em;}.cls-7{letter-spacing:-0.01em;}</style></defs><title>Negro</title><g id="Capa_2" data-name="Capa 2"><g id="Text"><path class="cls-1" d="M1193.22,450.34h0"/><g class="cls-2"><path class="cls-3" d="M972.24,278.38a27.13,27.13,0,1,1-27.13-27.12A27.12,27.12,0,0,1,972.24,278.38Z"/><path class="cls-3" d="M1238.22,347.62a100.25,100.25,0,0,0-37.92-66.92L914.66,58.46,897.71,45.27l-17-13.18A100.84,100.84,0,0,0,739.63,49.71l-3.42,4.39-3.42,4.4L541,305,349.17,551.56A100.87,100.87,0,0,0,366.79,692.7L509.58,803.79l142.8,111.1,17,13.2,17,13.21a100.87,100.87,0,0,0,141.13-17.61l6.82-8.76,383.64-493.1A100.32,100.32,0,0,0,1238.22,347.62Zm-144.51-131.4-106,136.22a38.35,38.35,0,0,1-53.67,6.7l-66-51.32a38.36,38.36,0,0,1-6.7-53.67l106-136.23a12,12,0,0,1,16.84-2.1l107.4,83.56A12,12,0,0,1,1093.71,216.22Z"/><path class="cls-3" d="M509.58,803.79l142.8,111.1-3.43,4.4-3.42,4.4A100.87,100.87,0,0,1,504.4,941.3L184.86,692.7a100.87,100.87,0,0,1-17.62-141.14L362.47,300.63,557.7,49.71A100.85,100.85,0,0,1,698.84,32.09l17,13.2,17,13.21L541,305,349.17,551.56A100.87,100.87,0,0,0,366.79,692.7Z"/><path class="cls-3" d="M1399.76,421.83,1204.53,672.76,1009.3,923.69A100.87,100.87,0,0,1,868.17,941.3l-16.95-13.19-16.94-13.18,383.64-493.1A100.86,100.86,0,0,0,1200.3,280.7L914.66,58.46l3.4-4.38,3.41-4.37A100.84,100.84,0,0,1,1062.6,32.09l159.77,124.3L1382.14,280.7a100.86,100.86,0,0,1,17.62,141.13Z"/></g><text class="cls-4" transform="translate(0.5 560.89)">DE<tspan class="cls-5" x="414.65" y="0">V</tspan><tspan class="cls-6" x="614.09" y="0" xml:space="preserve"> BAN</tspan><tspan class="cls-7" x="1353.74" y="0">K</tspan></text></g></g></svg>